<svg width="48" height="32" viewBox="0 0 48 32" fill="none" xmlns="http://www.w3.org/2000/svg">
<path d="M39.8133 16.9456H45.0485V26.2372H35.7568V21.0021C35.7568 18.7616 37.5729 16.9456 39.8133 16.9456Z" fill="#1485FF"/>
<path d="M21.7846 20.1252L14.7334 15.5829C12.1483 13.9176 10.5632 11.074 10.5055 7.99945L10.4355 4.2605L11.3526 4.49866C17.0727 5.98405 22.122 9.3608 25.6787 14.0804L21.7846 20.1252Z" fill="#1485FF"/>
<path d="M23.2077 9.69285C23.2452 9.6518 23.2817 9.6103 23.3191 9.56925C21.6204 6.3134 19.2441 3.42878 16.323 1.12469L15.5792 0.537842L14.1398 3.98901C14.1159 4.04675 14.0933 4.10494 14.0703 4.16313C17.4443 5.38554 20.5541 7.26517 23.2077 9.69285Z" fill="#1485FF"/>
<path d="M35.794 7.94185L35.6222 7.79931C32.522 5.22278 27.9097 5.69641 25.3981 8.84987L25.238 9.05059C20.2297 15.3381 12.6657 18.9837 4.6654 18.9837C3.07942 18.9837 2 18.9837 2 18.9837L10.7012 24.0204C15.12 26.578 20.4413 27.0584 25.2466 25.333C30.0785 23.5982 33.8932 19.811 35.6628 14.9921L36.8843 11.6659C37.2199 10.7516 37.9818 10.0605 38.9232 9.80975C40.9174 9.27748 43.0243 9.22245 45.0582 9.66541V8.28287C42.8714 7.85344 40.6169 7.94185 38.4825 8.52644C37.5451 8.78311 36.5415 8.56298 35.794 7.94185Z" fill="#1485FF"/>
</svg>
